<?xml version="1.0" encoding="utf-8"?>
<svg viewBox="158.098 113.909 102.17 122.88" xmlns="http://www.w3.org/2000/svg">
  <defs>
    <linearGradient gradientUnits="userSpaceOnUse" x1="209.183" y1="113.909" x2="209.183" y2="236.789" id="gradient-0">
      <stop offset="0" style="stop-color: rgb(100% 0% 0%)"/>
      <stop offset="1" style="stop-color: rgb(64.913% 0% 0%)"/>
    </linearGradient>
  </defs>
  <path d="M 260.268 143.569 C 260.263 142.237 259.379 141.068 258.098 140.699 L 231.718 115.009 C 231.151 114.316 230.304 113.912 229.408 113.909 L 183.408 113.909 C 180.448 113.909 178.048 116.309 178.048 119.269 L 178.048 134.319 L 163.458 134.319 C 160.498 134.319 158.098 136.719 158.098 139.679 L 158.098 231.429 C 158.098 234.389 160.498 236.789 163.458 236.789 L 234.998 236.789 C 237.947 236.772 240.329 234.378 240.328 231.429 L 240.328 216.429 L 254.918 216.429 C 257.867 216.412 260.249 214.018 260.248 211.069 C 260.248 188.582 260.248 166.099 260.248 143.619 L 260.268 143.569 Z M 184.008 134.319 L 184.008 119.909 L 226.408 119.909 L 226.408 144.149 C 226.408 145.806 227.752 147.149 229.408 147.149 L 254.278 147.149 C 254.278 168.229 254.278 189.309 254.278 210.389 L 240.278 210.389 L 240.278 163.969 C 240.273 162.637 239.389 161.468 238.108 161.099 L 211.788 135.419 C 211.23 134.721 210.383 134.315 209.488 134.319 L 184.008 134.319 Z M 212.468 144.799 L 230.378 161.579 L 212.468 161.579 L 212.468 144.799 Z M 164.098 230.799 L 164.098 140.279 L 206.498 140.279 L 206.498 164.559 C 206.498 166.216 207.842 167.559 209.498 167.559 L 234.358 167.559 C 234.358 188.652 234.358 209.732 234.358 230.799 L 164.098 230.799 Z M 175.428 183.589 C 175.827 183.124 176.407 182.855 177.018 182.849 L 212.168 182.849 C 212.782 182.852 213.364 183.118 213.768 183.579 C 214.18 184.049 214.405 184.654 214.398 185.279 C 214.399 185.905 214.172 186.509 213.758 186.979 C 213.357 187.439 212.779 187.708 212.168 187.719 L 177.018 187.719 C 176.405 187.715 175.823 187.449 175.418 186.989 C 174.57 186.014 174.57 184.564 175.418 183.589 L 175.428 183.589 Z M 175.428 212.529 C 175.823 212.065 176.399 211.795 177.008 211.789 L 221.968 211.789 C 222.58 211.795 223.16 212.064 223.558 212.529 C 223.972 212.999 224.199 213.603 224.198 214.229 C 224.205 214.854 223.98 215.459 223.568 215.929 C 223.164 216.39 222.582 216.656 221.968 216.659 L 177.038 216.659 C 176.428 216.655 175.849 216.389 175.448 215.929 C 174.587 214.959 174.587 213.499 175.448 212.529 L 175.428 212.529 Z M 221.968 197.319 C 222.58 197.325 223.16 197.594 223.558 198.059 C 224.406 199.034 224.406 200.484 223.558 201.459 C 223.153 201.918 222.57 202.18 221.958 202.179 L 177.038 202.179 C 176.43 202.178 175.851 201.916 175.448 201.459 C 175.031 200.988 174.803 200.378 174.808 199.749 C 174.806 199.124 175.038 198.521 175.458 198.059 C 175.853 197.595 176.429 197.325 177.038 197.319 L 221.968 197.319 Z M 175.428 169.109 C 175.831 168.651 176.409 168.386 177.018 168.379 L 197.808 168.379 C 198.42 168.378 199.003 168.64 199.408 169.099 C 200.254 170.079 200.254 171.529 199.408 172.509 C 199.006 172.967 198.428 173.232 197.818 173.239 L 177.018 173.239 C 176.407 173.239 175.824 172.977 175.418 172.519 C 174.573 171.539 174.573 170.089 175.418 169.109 L 175.428 169.109 Z M 175.428 154.639 C 175.834 154.174 176.421 153.908 177.038 153.909 L 188.468 153.909 C 189.077 153.91 189.656 154.172 190.058 154.629 C 190.904 155.609 190.904 157.059 190.058 158.039 C 189.66 158.496 189.085 158.762 188.478 158.769 L 177.038 158.769 C 176.431 158.763 175.854 158.502 175.448 158.049 C 175.033 157.577 174.805 156.968 174.808 156.339 C 174.808 155.711 175.039 155.106 175.458 154.639 L 175.428 154.639 Z M 232.398 124.389 L 250.308 141.169 L 232.398 141.169 L 232.398 124.389 Z" style="fill-rule: nonzero; fill: url('#gradient-0'); stroke: rgb(93, 51, 219);"/>
</svg>